<?xml version="1.0" encoding="UTF-8" standalone="no"?>
<!DOCTYPE svg PUBLIC "-//W3C//DTD SVG 1.1//EN" "http://www.w3.org/Graphics/SVG/1.1/DTD/svg11.dtd">
<svg width="100%" height="100%" viewBox="0 0 1024 1024" version="1.1"
    xmlns="http://www.w3.org/2000/svg"
    xmlns:xlink="http://www.w3.org/1999/xlink" xml:space="preserve"
    xmlns:serif="http://www.serif.com/" style="fill-rule:evenodd;clip-rule:evenodd;stroke-linejoin:round;stroke-miterlimit:2;">
    <g transform="matrix(0.711738,0,0,0.711738,183.708,677.313)">
        <g transform="matrix(500,0,0,500,473.558,367.937)">
            <path d="M0.167,-0.554C0.156,-0.554 0.146,-0.556 0.136,-0.56C0.126,-0.564 0.118,-0.57 0.111,-0.577C0.104,-0.584 0.098,-0.592 0.094,-0.602C0.09,-0.612 0.088,-0.622 0.088,-0.633C0.088,-0.644 0.09,-0.654 0.094,-0.664C0.098,-0.673 0.104,-0.682 0.111,-0.689C0.118,-0.697 0.126,-0.703 0.136,-0.707C0.146,-0.711 0.156,-0.713 0.167,-0.713C0.178,-0.713 0.188,-0.711 0.198,-0.707C0.208,-0.703 0.216,-0.697 0.224,-0.689C0.231,-0.682 0.237,-0.673 0.241,-0.664C0.245,-0.654 0.247,-0.644 0.247,-0.633C0.247,-0.622 0.245,-0.612 0.241,-0.602C0.237,-0.592 0.231,-0.584 0.224,-0.577C0.216,-0.57 0.208,-0.564 0.198,-0.56C0.188,-0.556 0.178,-0.554 0.167,-0.554ZM0.099,0.006C0.067,0.006 0.042,-0.004 0.023,-0.022C0.003,-0.043 -0.008,-0.074 -0.008,-0.114C-0.008,-0.133 -0.005,-0.154 0,-0.179L0.068,-0.5L0.212,-0.5L0.14,-0.16C0.138,-0.152 0.136,-0.141 0.136,-0.128C0.136,-0.114 0.139,-0.105 0.146,-0.099C0.152,-0.094 0.162,-0.091 0.177,-0.091C0.187,-0.091 0.196,-0.093 0.205,-0.097C0.215,-0.102 0.223,-0.108 0.231,-0.116C0.247,-0.132 0.259,-0.153 0.267,-0.179L0.309,-0.179C0.291,-0.129 0.269,-0.089 0.242,-0.059C0.219,-0.034 0.193,-0.017 0.165,-0.006C0.144,0.002 0.122,0.006 0.099,0.006Z" style="fill:rgb(179,179,179);fill-rule:nonzero;"/>
        </g>
        <g transform="matrix(500,0,0,500,607.103,367.937)">
            <path d="M0.361,0.006C0.319,0.006 0.289,-0.006 0.269,-0.029C0.252,-0.049 0.243,-0.075 0.243,-0.107C0.243,-0.122 0.245,-0.139 0.249,-0.159C0.253,-0.179 0.258,-0.205 0.266,-0.236C0.273,-0.268 0.279,-0.293 0.282,-0.312C0.286,-0.331 0.288,-0.348 0.288,-0.362C0.288,-0.396 0.276,-0.413 0.252,-0.413C0.235,-0.413 0.219,-0.404 0.205,-0.386C0.193,-0.371 0.183,-0.349 0.174,-0.321L0.106,-0L-0.038,-0L0.068,-0.5L0.212,-0.5L0.201,-0.448C0.221,-0.47 0.242,-0.485 0.264,-0.494C0.281,-0.501 0.299,-0.504 0.318,-0.504C0.352,-0.504 0.378,-0.495 0.398,-0.478C0.419,-0.458 0.429,-0.43 0.429,-0.391C0.429,-0.368 0.425,-0.338 0.417,-0.301C0.414,-0.29 0.41,-0.274 0.405,-0.252C0.396,-0.216 0.389,-0.188 0.385,-0.166C0.382,-0.152 0.381,-0.141 0.381,-0.133C0.381,-0.119 0.384,-0.109 0.39,-0.102C0.396,-0.094 0.406,-0.091 0.421,-0.091C0.441,-0.091 0.458,-0.099 0.471,-0.115C0.482,-0.128 0.493,-0.149 0.505,-0.179L0.547,-0.179C0.522,-0.106 0.491,-0.055 0.453,-0.025C0.426,-0.005 0.396,0.006 0.361,0.006Z" style="fill:rgb(179,179,179);fill-rule:nonzero;"/>
        </g>
        <g transform="matrix(500,0,0,500,859.544,367.937)">
            <path d="M0.361,0.006C0.319,0.006 0.289,-0.006 0.269,-0.029C0.252,-0.049 0.243,-0.075 0.243,-0.107C0.243,-0.122 0.245,-0.139 0.249,-0.159C0.253,-0.179 0.258,-0.205 0.266,-0.236C0.273,-0.268 0.279,-0.293 0.282,-0.312C0.286,-0.331 0.288,-0.348 0.288,-0.362C0.288,-0.396 0.276,-0.413 0.252,-0.413C0.235,-0.413 0.219,-0.404 0.205,-0.386C0.193,-0.371 0.183,-0.349 0.174,-0.321L0.106,-0L-0.038,-0L0.107,-0.68L0.255,-0.7L0.201,-0.448C0.221,-0.47 0.242,-0.485 0.264,-0.494C0.281,-0.501 0.299,-0.504 0.318,-0.504C0.352,-0.504 0.378,-0.495 0.398,-0.478C0.419,-0.458 0.429,-0.43 0.429,-0.391C0.429,-0.368 0.425,-0.338 0.417,-0.301C0.414,-0.29 0.41,-0.274 0.405,-0.252C0.396,-0.216 0.389,-0.188 0.385,-0.166C0.382,-0.152 0.381,-0.141 0.381,-0.133C0.381,-0.119 0.384,-0.109 0.39,-0.102C0.396,-0.094 0.406,-0.091 0.421,-0.091C0.441,-0.091 0.458,-0.099 0.471,-0.115C0.482,-0.128 0.493,-0.149 0.505,-0.179L0.547,-0.179C0.522,-0.106 0.491,-0.055 0.453,-0.025C0.426,-0.005 0.396,0.006 0.361,0.006Z" style="fill:rgb(179,179,179);fill-rule:nonzero;"/>
        </g>
    </g>
    <g transform="matrix(1.4392,0,0,1.4392,-695.777,417.69)">
        <g transform="matrix(500,0,0,500,473.558,367.937)">
            <path d="M0.321,-0.687C0.27,-0.67 0.231,-0.642 0.203,-0.604C0.176,-0.566 0.162,-0.519 0.162,-0.462C0.162,-0.44 0.164,-0.424 0.169,-0.411C0.17,-0.408 0.172,-0.404 0.174,-0.4C0.175,-0.398 0.176,-0.396 0.176,-0.393C0.142,-0.393 0.116,-0.4 0.098,-0.414C0.079,-0.429 0.069,-0.452 0.069,-0.484C0.069,-0.505 0.073,-0.526 0.082,-0.547C0.09,-0.569 0.102,-0.59 0.118,-0.61C0.133,-0.629 0.151,-0.648 0.171,-0.665C0.191,-0.682 0.214,-0.697 0.237,-0.709C0.261,-0.722 0.286,-0.733 0.311,-0.74C0.337,-0.747 0.362,-0.75 0.387,-0.75C0.412,-0.75 0.437,-0.745 0.463,-0.736L0.44,-0.209L0.66,-0.736L0.804,-0.736L0.699,-0L0.555,-0L0.619,-0.449L0.431,-0L0.294,-0L0.314,-0.451L0.147,-0L0.067,-0L0.321,-0.687Z" style="fill:rgb(26,26,26);fill-rule:nonzero;"/>
        </g>
    </g>
    <g transform="matrix(1.4539,0,0,1.4539,-236.078,86.3321)">
        <g transform="matrix(500,0,0,500,473.558,367.937)">
            <path d="M0.299,-0.662L0.287,-0.662C0.228,-0.662 0.183,-0.649 0.153,-0.622C0.117,-0.589 0.099,-0.535 0.099,-0.46C0.099,-0.439 0.101,-0.423 0.106,-0.41C0.107,-0.406 0.109,-0.402 0.111,-0.399C0.112,-0.397 0.113,-0.394 0.113,-0.392C0.077,-0.392 0.05,-0.399 0.034,-0.414C0.015,-0.429 0.006,-0.454 0.006,-0.489C0.006,-0.523 0.012,-0.556 0.025,-0.587C0.038,-0.618 0.058,-0.646 0.084,-0.669C0.112,-0.694 0.148,-0.714 0.192,-0.728C0.236,-0.742 0.288,-0.749 0.347,-0.749C0.381,-0.749 0.414,-0.747 0.445,-0.743C0.455,-0.742 0.468,-0.74 0.483,-0.738C0.509,-0.733 0.535,-0.73 0.559,-0.728C0.57,-0.727 0.585,-0.726 0.603,-0.726C0.625,-0.726 0.646,-0.728 0.667,-0.732C0.687,-0.736 0.704,-0.741 0.719,-0.747C0.718,-0.703 0.706,-0.671 0.686,-0.651C0.665,-0.63 0.635,-0.62 0.594,-0.62C0.572,-0.62 0.55,-0.622 0.528,-0.625C0.506,-0.629 0.476,-0.635 0.439,-0.642L0.301,-0L0.157,-0L0.299,-0.662Z" style="fill:rgb(38,38,38);fill-rule:nonzero;"/>
        </g>
    </g>
</svg>
